<?xml version="1.0" encoding="UTF-8"?>
<svg id="Layer_1" data-name="Layer 1" xmlns="http://www.w3.org/2000/svg" viewBox="0 0 214.84 56.67">
  <defs>
    <style>
      .cls-1 {
        fill: #231f20;
      }
    </style>
  </defs>
  <path class="cls-1" d="M9.07,1.98c-1.86-.09-3.74-.12-5.59,0-1.7.12-2.58,1.21-2.57,3.32h0C.95,13.45.31,29.75.01,29.75c0,6.66-.03,13.3,0,19.96.03,6.95.05,6.95,6.16,6.97,3.54,0,4.06-.57,4.15-4.64.35-15.65.67-31.29,1.07-46.94.05-2.04-.65-3.05-2.32-3.12Z"/>
  <path class="cls-1" d="M69.06,4c-.11-2.02-.67-3.13-2.82-3.15C52.04.68,37.84.32,23.64.02c-4.11-.08-4.14-.05-4.08,4.81,0,.66-.02,1.31-.04,1.97-.1,3.41.24,4.04,3.17,4.25,4.05.27,8.11.29,12.17.39,3.36.1,3.75.54,3.76,4.43h0c0,6.1.17,18.29.25,18.29,0,6.18.05,12.38-.02,18.56-.04,2.68,1.01,3.77,3.22,3.76,1.54-.01,3.09.02,4.62.16,1.94.18,2.94-.76,2.99-2.99.07-3.28.21-6.56.18-9.83-.11-10.01-.26-20.03-.44-30.03-.03-1.74.5-2.25,2.01-2.18,4.3.21,8.6.3,12.9.29,4.73,0,4.73-.07,4.69-5.38,0-.84.08-1.69.04-2.53Z"/>
  <path class="cls-1" d="M161.35,32.64c-.35-5.37-4.07-9.19-8.79-9.3-7.88-.19-58.01-.38-65.88-.51-2.06-.03-3.49-.52-3.24-3.46.11-1.38-.12-2.82-.29-4.21-.25-1.93.17-3.06,2.11-3.04,7.21.08,56.69.09,63.9.13,2.09.02,1.96,1.86,1.96,3.41,0,2.2.8,3.05,2.71,2.78,1.45-.22,2.92-.28,4.38-.21,2.14.1,3.19-1,3.27-3.42.19-5.91-2.69-13.35-9.15-13.34-7.14,0-56.54,0-63.68,0h0v-.19c-2.6,0-5.2-.13-7.79.04-3.27.21-5.67,2.09-6.96,5.65-2,5.51-1.32,11.26-.9,16.94.43,5.91,3.65,9.67,8.63,9.88,8.19.35,58.64.43,66.83.53,1.58.02,2.52.49,2.55,2.44.04,2.25.11,4.5.1,6.76,0,1.52-.43,2.21-2.07,2.13-6.4-.3-55.07-.45-61.48-.38-4.22.04-4.62-.09-5.12-4.91-.17-1.67-.78-2.66-2.33-2.47-2.02.24-4.08.31-6.03.9-.87.27-1.99,1.5-2.17,2.49-1.44,8.31,2.58,14.49,9.91,14.92,7.04.41,56.37.41,63.43.49,2.83.03,5.7.07,8.5-.35,4.92-.73,7.9-4.66,7.98-10.47.06-4.4-.1-8.81-.39-13.2Z"/>
  <path class="cls-1" d="M214.11,52.93c-2.11-5.27-4.28-10.51-6.49-15.74-4.17-9.84-8.49-19.59-12.52-29.52-2.04-5.04-1.91-5.22-6.77-5.18-2.36.02-4.24.61-5.09,3.62-.5,1.76-1.48,3.34-2.25,4.98-4.52,9.65-9.06,19.27-13.53,28.95-2.06,4.46-3.98,9.01-5.96,13.51-.68,1.55-.26,2.34,1.22,2.33,1.76-.01,3.55-.21,5.3-.08,1.68.12,2.73-.56,3.48-2.32,1.1-2.61,2.23-5.22,3.6-7.66.52-.93,1.74-1.93,2.64-1.93,6.81-.02,13.63.18,20.44.46.74.03,1.74.83,2.13,1.6,1.32,2.69,2.27,5.63,3.67,8.24.58,1.07,1.88,1.8,2.99,2.27.86.36,1.93.07,2.9.07h0s0,.13,0,.13h2.19c3.06,0,3.36-.45,2.05-3.73ZM180.49,33.72c2.64-5.64,4.97-10.64,7.31-15.64l.79-.07c2.18,5.1,4.37,10.2,6.72,15.71h-14.82Z"/>
</svg>